<svg width="300" height="343" viewBox="0 0 300 343" fill="none" xmlns="http://www.w3.org/2000/svg">
<mask id="mask0_228_15400" style="mask-type:alpha" maskUnits="userSpaceOnUse" x="0" y="0" width="300" height="343">
<path d="M0 7.99999C0 3.58172 3.58172 0 8 0H292C296.418 0 300 3.58172 300 8V335C300 339.418 296.418 343 292 343H7.99999C3.58171 343 0 339.418 0 335V7.99999Z" fill="#FF7010"/>
</mask>
<g mask="url(#mask0_228_15400)">
<path d="M0 12C0 5.37258 5.37258 0 12 0H288C294.627 0 300 5.37258 300 12V331C300 337.627 294.627 343 288 343H12C5.37259 343 0 337.627 0 331V12Z" fill="#E23535"/>
<path fill-rule="evenodd" clip-rule="evenodd" d="M249.952 73.3687L254.684 90.093L174.5 127.549L158.271 122.244L249.952 73.3687Z" fill="#A86A37"/>
<path opacity="0.2" fill-rule="evenodd" clip-rule="evenodd" d="M278.571 175.553L159.184 123.739L93.331 167.31L0.549971 128.473L0.114136 148.447L93.2895 188.145V188.166L93.331 188.156L93.3414 188.166V188.156L257.765 182.664L278.571 175.553Z" fill="#7B2620"/>
<path fill-rule="evenodd" clip-rule="evenodd" d="M90.1971 78.3935L168.533 77.5734L250.076 73.0056L158.457 122.182L0.404663 126.366L74.0297 95.5332L90.1971 78.3935Z" fill="#A86A37"/>
<path fill-rule="evenodd" clip-rule="evenodd" d="M158.478 143.858L0.871692 146.277L0.394348 126.386L158.499 121.455L158.478 143.858Z" fill="#8E5326"/>
<path fill-rule="evenodd" clip-rule="evenodd" d="M256.78 180.162L158.115 140.474V122.307L257.755 160.552L256.78 180.162Z" fill="#A46633"/>
<g style="mix-blend-mode:multiply" opacity="0.2">
<path fill-rule="evenodd" clip-rule="evenodd" d="M158.115 134.079V140.474L213.113 164.87C213.875 164.05 214.462 163.082 214.836 162.026C215.531 159.949 215.303 150.066 213.227 143.796L198.388 137.65C188.8 136.633 174.334 135.252 158.115 134.079Z" fill="#D18C27"/>
</g>
<g style="mix-blend-mode:multiply" opacity="0.2">
<path fill-rule="evenodd" clip-rule="evenodd" d="M158.488 128.816C148.807 128.162 138.699 127.601 128.717 127.217C114.5 125.826 68.6648 125.66 55.1435 125.338L53.5454 125.566C34.296 128.089 28.9727 142.851 29.6057 145.644C29.7056 146.055 29.8375 146.458 30 146.848L158.488 145.229V128.816Z" fill="#D18C27"/>
</g>
<path d="M202.321 141.387C201.979 141.138 161.435 136.487 123.051 135.034C84.7596 131.286 41.8817 133.228 41.5289 133.466C38.0422 135.823 39.1421 142.052 39.7544 144.72C41.0515 150.377 49.2079 156.772 65.8423 161.714C80.4635 166.302 100.325 169.635 121.193 171.057C142.062 172.479 162.089 171.898 177.032 169.313C193.999 166.666 203.639 162.14 205.434 156.689C206.275 154.073 206.503 144.47 202.321 141.387Z" fill="#E58848"/>
<path d="M92.2311 123.158H92.8953C94.5452 123.064 95.614 123.044 97.347 122.981C99.08 122.919 100.927 122.452 102.67 122.421H103.469C104.507 122.421 105.493 122.306 106.51 122.265C106.956 122.265 107.423 122.265 107.89 122.265C109.685 122.265 111.844 122.846 113.649 122.888C115.455 122.929 117.198 122.992 119.014 123.064C120.83 123.137 122.605 123.064 124.421 123.147C126.237 123.23 128.084 123.303 129.9 123.448C131.716 123.594 133.532 123.729 135.337 123.905C137.143 124.082 138.793 124.404 140.526 124.622C142.259 124.84 143.919 125.12 145.652 125.359C147.385 125.597 149.927 125.359 151.619 125.629C153.31 125.898 154.732 126.324 156.413 126.667C158.094 127.009 159.682 127.3 161.249 127.632C162.816 127.964 163.542 128.566 165.036 128.909C166.531 129.252 168.959 129.355 170.37 129.729C171.781 130.103 172.342 130.684 173.66 131.079C174.978 131.473 177.105 131.722 178.319 132.117C179.533 132.511 180.394 133.02 181.515 133.446C182.636 133.871 182.667 134.432 183.674 134.889C184.68 135.345 187.43 135.605 188.312 136.062C189.194 136.519 190.138 136.996 190.906 137.463C191.674 137.93 190.678 138.501 191.321 138.958C191.965 139.415 192.598 139.903 193.106 140.37C193.615 140.837 194.58 141.325 194.953 141.792C195.213 142.239 195.415 142.717 195.555 143.215C195.871 143.661 196.136 144.141 196.344 144.647C196.53 145.099 196.655 145.574 196.717 146.059C196.717 146.526 195.057 146.869 194.891 147.326C194.725 147.782 195.493 148.301 195.182 148.748C194.786 149.209 194.352 149.636 193.885 150.025C193.438 150.45 193.366 150.928 192.847 151.343C192.328 151.758 191.072 152.059 190.377 152.454C189.682 152.848 190.512 153.492 189.692 153.876C188.872 154.26 186.807 154.395 185.863 154.738C184.919 155.08 184.825 155.641 183.788 155.963C182.75 156.285 179.824 156.139 178.599 156.44C177.375 156.741 177.727 157.479 176.462 157.697C175.196 157.915 174.106 158.319 172.736 158.558C172.303 158.623 171.866 158.661 171.429 158.672C170.515 158.672 169.447 158.672 168.523 158.724C168.108 158.724 167.714 158.724 167.382 158.818C165.929 159.015 164.933 159.409 163.397 159.586C163.106 159.586 162.785 159.586 162.453 159.648C161.29 159.648 159.921 159.648 158.748 159.648H158.053C156.465 159.783 155.676 160.396 153.995 160.489H153.829C152.179 160.551 149.824 160.157 148.153 160.219C146.482 160.281 145.33 160.78 143.691 160.842H143.494C141.73 160.842 139.509 160.416 137.724 160.416H136.925C135.804 160.468 134.735 160.593 133.625 160.634C133.262 160.634 132.899 160.634 132.525 160.634C130.699 160.634 128.883 160.686 127.056 160.634C125.23 160.583 123.352 160.012 121.536 159.897C119.72 159.783 117.873 159.814 116.057 159.669C114.241 159.524 112.539 159.202 110.744 159.025C108.949 158.849 107.184 158.672 105.41 158.465C103.636 158.257 101.259 158.465 99.5262 158.268C97.7933 158.07 96.5272 157.447 94.8358 157.177C93.1443 156.908 92.0962 156.347 90.467 156.046C88.8378 155.745 86.2125 155.859 84.6455 155.527C83.0786 155.195 82.2588 154.624 80.7645 154.271C79.2702 153.918 77.9731 153.534 76.5619 153.16C75.1506 152.786 74.3307 152.309 73.0129 151.914C71.695 151.52 69.2875 151.343 68.0631 150.928C66.8386 150.513 65.3443 150.139 64.2235 149.703C63.1028 149.267 63.3415 148.665 62.3349 148.229C61.3283 147.793 60.1661 147.377 59.2841 146.921C58.402 146.464 57.2086 146.049 56.42 145.571C55.7795 145.138 55.1629 144.67 54.5729 144.17C53.9295 143.692 54.2305 143.215 53.722 142.737C53.2135 142.259 50.7957 141.803 50.4221 141.336C50.0485 140.868 50.3391 140.38 50.1004 139.903C49.8617 139.425 50.6815 139 50.5777 138.533C50.4739 138.065 49.841 137.567 49.8721 137.11C49.9032 136.654 50.4117 136.218 50.5777 135.771C50.7438 135.325 50.5777 134.847 50.9202 134.401C51.2626 133.954 52.373 133.622 52.8192 133.197C53.4049 132.764 54.0147 132.366 54.6456 132.003C55.2267 131.598 55.0295 131.089 55.7351 130.705C56.4408 130.321 57.9039 130.072 58.7237 129.667C59.5435 129.262 59.2322 128.722 60.1765 128.38C61.1208 128.037 62.2519 127.715 63.2896 127.393C64.3273 127.072 65.7697 126.854 66.9319 126.552C68.0942 126.251 69.3809 126.013 70.6469 125.753C71.9129 125.494 72.6704 125.058 74.0402 124.819C75.4099 124.58 77.0392 124.455 78.492 124.248C78.907 124.248 79.3844 124.165 79.8928 124.144C80.723 124.144 81.6362 124.144 82.4664 124.082C82.8918 124.082 83.2861 124.082 83.6389 123.999C85.1644 123.833 86.1087 123.417 87.7275 123.282L88.8586 123.21C89.8963 123.21 91.1208 123.21 92.2208 123.137L92.2311 123.158ZM94.8254 121.144C85.8627 121.428 76.9306 122.337 68.0942 123.864C60.6434 125.234 54.687 126.978 50.3909 129.148C46.0948 131.317 43.6874 133.674 43.2204 136.249C42.7535 138.823 44.3723 141.657 48.0769 144.408C51.7815 147.159 57.3436 149.755 64.5971 152.122C72.6593 154.659 80.8918 156.619 89.2322 157.987C98.9898 159.646 108.826 160.8 118.703 161.444C129.037 162.149 139.4 162.308 149.751 161.922C158.715 161.648 167.647 160.739 176.482 159.202C183.933 157.831 189.889 156.087 194.185 153.918C198.482 151.748 200.899 149.402 201.356 146.827C201.813 144.253 200.215 141.419 196.5 138.657C190.419 134.141 184.68 132.428 179.979 130.954C171.92 128.418 163.691 126.458 155.355 125.089C145.593 123.431 135.753 122.277 125.873 121.632C115.54 120.929 105.176 120.766 94.8254 121.144Z" fill="#F78E48" stroke="#F78E48" stroke-width="0.52"/>
<path d="M149.741 161.922C139.39 162.308 129.026 162.149 118.693 161.444C108.816 160.8 98.9794 159.646 89.2217 157.987C80.8813 156.619 72.6489 154.659 64.5867 152.122C57.3227 149.755 51.771 147.159 48.0664 144.408C44.3618 141.657 42.7223 138.906 43.21 136.249C43.6977 133.591 46.0948 131.286 50.3805 129.148C54.6662 127.009 60.633 125.234 68.0837 123.864C76.9202 122.337 85.8522 121.428 94.815 121.144C105.166 120.766 115.529 120.929 125.863 121.632C135.743 122.277 145.583 123.431 155.344 125.089C163.681 126.458 171.91 128.418 179.969 130.954C187.233 133.311 192.785 135.906 196.489 138.657C200.194 141.408 201.833 144.159 201.346 146.827C200.858 149.495 198.471 151.779 194.175 153.918C189.879 156.056 183.923 157.831 176.472 159.202C167.637 160.739 158.704 161.648 149.741 161.922ZM93.7669 120.396C51.221 122.047 29.4293 132.854 45.2335 144.554C61.0378 156.253 108.232 164.382 150.789 162.731C193.345 161.081 215.126 150.274 199.332 138.584C183.539 126.895 136.323 118.746 93.7669 120.396Z" fill="#E58848"/>
<path d="M98.8206 123.532C98.613 123.532 98.1461 123.646 97.7829 123.708C96.7044 123.93 95.6125 124.079 94.5141 124.154H93.5698C92.8745 124.154 92.1897 124.154 91.5878 124.154C90.9859 124.154 90.6123 124.154 90.2076 124.154H89.6265C89.3671 124.154 88.8794 124.289 88.4851 124.372C87.6004 124.59 86.7026 124.749 85.7974 124.85C85.2267 124.912 84.5729 124.964 83.8258 124.985C83.2654 124.985 82.7258 124.985 82.2485 124.985H81.2108H80.8683C80.173 125.089 79.4882 125.161 78.7929 125.244C78.0976 125.328 77.2156 125.421 76.6241 125.525C76.2165 125.611 75.8145 125.722 75.4204 125.857C74.7747 126.08 74.1164 126.263 73.4488 126.407L72.6808 126.563C71.7054 126.771 70.7715 126.957 69.9413 127.165C69.3498 127.31 68.7583 127.435 68.1772 127.56C67.5961 127.684 66.9112 127.819 66.4754 127.954L66.0914 128.068C65.1782 128.338 64.317 128.598 63.5698 128.878C63.4599 128.964 63.3711 129.074 63.3104 129.2C63.0845 129.618 62.7165 129.942 62.2727 130.113C61.6876 130.359 61.0838 130.556 60.4671 130.705C60.1124 130.791 59.7653 130.905 59.4294 131.048C59.2716 131.157 59.1519 131.313 59.0869 131.494C58.9463 131.812 58.7244 132.088 58.4436 132.293C58.1738 132.48 57.8728 132.657 57.5822 132.823C57.2663 132.991 56.9674 133.189 56.6898 133.415C56.3479 133.702 55.9671 133.94 55.5587 134.121C55.3051 134.223 55.0702 134.367 54.8635 134.546C54.7459 134.744 54.6849 134.97 54.6871 135.2C54.6738 135.419 54.632 135.636 54.5626 135.844C54.4621 136.065 54.3368 136.274 54.189 136.467C54.0354 136.651 53.9254 136.867 53.8673 137.1C53.9077 137.314 54.0085 137.512 54.1578 137.671C54.3459 137.901 54.487 138.165 54.5729 138.45C54.5848 138.609 54.5632 138.768 54.5096 138.919C54.456 139.069 54.3715 139.206 54.2616 139.322C54.1371 139.477 54.0125 139.654 54.0644 139.747C54.1688 139.986 54.2184 140.245 54.2097 140.505C54.1933 140.686 54.2219 140.868 54.2927 141.035L54.9776 141.263C55.9011 141.498 56.7783 141.887 57.5719 142.415C57.8225 142.653 57.9961 142.96 58.07 143.298C58.0967 143.477 58.1847 143.642 58.319 143.765C58.5785 143.962 58.8067 144.149 59.0247 144.336C59.3533 144.614 59.7 144.871 60.0624 145.104C60.4776 145.336 60.9074 145.54 61.3491 145.717C61.8265 145.924 62.3246 146.132 62.7915 146.371C63.2585 146.609 63.7566 146.807 64.3481 147.045C64.7839 147.222 65.2509 147.409 65.6867 147.606C66.2528 147.82 66.7535 148.178 67.1395 148.644C67.2269 148.769 67.3317 148.881 67.4508 148.976C67.897 149.142 68.4885 149.329 69.2045 149.537C69.9205 149.744 70.3875 149.89 70.979 150.087L72.079 150.274C73.3288 150.442 74.5663 150.692 75.7836 151.021C76.6138 151.271 77.2467 151.53 77.8071 151.748C78.3674 151.966 78.7099 152.101 79.1042 152.205L80.474 152.579C81.3664 152.828 82.2069 153.056 83.0682 153.264C83.9933 153.48 84.8991 153.772 85.7767 154.136C86.005 154.219 86.3163 154.343 86.5446 154.416L87.4681 154.468C89.0709 154.516 90.669 154.668 92.2519 154.925C93.307 155.118 94.3472 155.385 95.3651 155.724C95.6867 155.818 96.1641 155.973 96.4028 156.015C97.5312 156.202 98.647 156.459 99.7441 156.783L100.637 157.032H101.57C103.181 156.995 104.793 157.061 106.396 157.229C108.025 157.416 109.633 157.582 111.418 157.759C112.508 157.863 113.494 157.998 114.355 158.122C115.216 158.247 115.87 158.33 116.43 158.371C116.991 158.413 117.8 158.444 118.63 158.465C119.461 158.486 120.519 158.465 121.609 158.579C123.04 158.678 124.464 158.862 125.873 159.129L126.911 159.306C127.513 159.306 128.26 159.306 129.049 159.306C129.838 159.306 130.896 159.306 131.944 159.306H132.162L133.355 159.233C133.968 159.181 134.673 159.129 135.431 159.098C135.908 159.098 136.365 159.098 136.811 159.098C138.303 159.115 139.792 159.215 141.273 159.399L142.311 159.503L143.079 159.659C144.294 159.393 145.53 159.236 146.773 159.192C148.342 159.153 149.912 159.212 151.474 159.368L152.335 159.441L152.864 159.275C153.927 158.945 155.024 158.733 156.133 158.641C156.517 158.641 156.922 158.579 157.378 158.569C158.24 158.569 159.059 158.569 159.796 158.569H161.218C161.672 158.502 162.122 158.412 162.567 158.299C163.354 158.101 164.15 157.945 164.953 157.832C165.576 157.748 166.292 157.686 167.153 157.655C167.807 157.655 168.43 157.655 168.99 157.655H170.028H170.132C170.671 157.562 171.169 157.416 171.802 157.271C172.435 157.126 172.84 157.011 173.38 156.887C173.477 156.812 173.567 156.729 173.649 156.638C174.122 156.088 174.772 155.721 175.486 155.6C176.854 155.329 178.243 155.183 179.637 155.164H180.509C180.657 155.074 180.796 154.97 180.924 154.852C181.329 154.498 181.797 154.223 182.304 154.042C183.161 153.774 184.04 153.576 184.929 153.451C185.251 153.451 185.728 153.316 185.967 153.264C185.988 153.168 185.988 153.069 185.967 152.973C185.92 152.749 185.955 152.516 186.066 152.316C186.176 152.116 186.355 151.963 186.569 151.883C187.007 151.654 187.462 151.456 187.928 151.291C188.287 151.171 188.635 151.018 188.966 150.835C189.167 150.67 189.336 150.469 189.464 150.243C189.605 150.004 189.776 149.785 189.972 149.589L190.408 149.184C190.702 148.95 190.967 148.681 191.197 148.385C191.259 148.301 191.197 148.115 191.062 147.948C190.964 147.82 190.895 147.672 190.861 147.514C190.827 147.356 190.828 147.192 190.865 147.035C191.021 146.64 191.654 146.339 192.162 146.111C192.34 146.035 192.511 145.941 192.67 145.831C192.66 145.569 192.6 145.312 192.494 145.073C192.418 144.888 192.359 144.697 192.318 144.502C192.224 144.229 192.087 143.974 191.913 143.744C191.782 143.557 191.661 143.362 191.55 143.163C191.462 142.968 191.389 142.766 191.332 142.561C191.269 142.293 191.156 142.039 191 141.813C190.765 141.585 190.504 141.386 190.221 141.221C189.858 140.997 189.511 140.748 189.184 140.474C188.716 140.054 188.224 139.662 187.71 139.301L187.492 139.145C187.288 139.038 187.131 138.858 187.054 138.64C186.977 138.423 186.985 138.184 187.077 137.972C187.091 137.876 187.091 137.778 187.077 137.681C186.455 137.308 185.687 136.903 184.94 136.519L184.825 136.467L183.892 136.269C182.634 136.068 181.4 135.741 180.208 135.294C179.662 135.054 179.16 134.724 178.724 134.318C178.575 134.164 178.403 134.035 178.215 133.934C177.655 133.705 177.178 133.498 176.711 133.28C176.244 133.062 175.673 132.833 175.227 132.667C175.05 132.615 174.345 132.47 173.878 132.387C172.954 132.2 171.802 131.982 170.765 131.681C169.993 131.45 169.246 131.144 168.534 130.767C168.295 130.653 167.942 130.477 167.745 130.404L166.562 130.259C165.234 130.124 163.914 129.916 162.608 129.636C161.662 129.412 160.738 129.103 159.848 128.712C159.588 128.608 159.215 128.452 159.028 128.4C157.233 128.027 155.801 127.736 154.504 127.497C153.539 127.321 152.677 127.123 151.92 126.947C151.328 126.812 150.768 126.687 150.28 126.594H149.305C147.633 126.625 145.962 126.534 144.303 126.324L142.145 126.013C141.2 125.867 140.308 125.732 139.457 125.629C138.606 125.525 137.548 125.369 136.738 125.244C135.929 125.12 135.161 125.006 134.528 124.943C133.106 124.808 131.633 124.694 130.076 124.57L129.391 124.507C128.561 124.445 127.617 124.404 126.631 124.362L124.224 124.237C123.725 124.237 123.02 124.237 122.273 124.237C121.349 124.237 120.301 124.237 119.16 124.237C117.229 124.154 115.663 124.113 114.096 124.071C112.499 124.02 110.908 123.86 109.333 123.594L108.367 123.448H107.828L106.52 123.511L104.787 123.594H103.75H102.504C101.207 123.594 99.9621 123.594 98.7999 123.677L98.8206 123.532Z" fill="url(#paint0_linear_228_15400)"/>
<path d="M80.0277 135.065C79.3915 135.149 78.7444 135.067 78.1494 134.827C77.8692 134.629 78.2532 134.422 79.0107 134.36C79.6435 134.281 80.2858 134.364 80.8786 134.598C81.1588 134.796 80.7748 135.003 80.0277 135.065ZM73.5524 133.394C72.7927 133.489 72.0214 133.389 71.311 133.103C70.9685 132.865 71.4251 132.615 72.3487 132.543C73.1084 132.443 73.881 132.543 74.5901 132.833C74.9325 133.062 74.4656 133.311 73.5524 133.394ZM73.7392 131.256C69.5261 131.608 66.4026 130.736 65.4375 131.754C65.3545 131.826 65.2715 131.754 65.2404 131.941C64.9394 133.238 65.2404 134.847 66.0913 135.418C68.6129 137.162 76.1259 138.128 82.8813 137.567C88.5887 137.1 91.9197 135.699 91.2971 134.225C91.1829 133.955 91.4424 133.332 91.0481 133.062C88.5264 131.318 80.5154 130.705 73.7599 131.256H73.7392Z" fill="#952500"/>
<path d="M93.6216 124.196H94.5659C95.6642 124.12 96.7563 123.971 97.8347 123.749C98.146 123.687 98.613 123.594 98.8724 123.573C100.035 123.573 101.28 123.511 102.577 123.49H103.822H104.86L106.593 123.407L107.9 123.345H108.44L109.405 123.49C110.98 123.757 112.571 123.916 114.168 123.967C115.735 123.967 117.281 124.05 119.232 124.134C120.415 124.185 121.463 124.134 122.345 124.134C123.092 124.134 123.798 124.134 124.296 124.134L126.704 124.258C127.741 124.258 128.634 124.341 129.464 124.403L130.149 124.466C131.705 124.59 133.179 124.705 134.601 124.839C135.234 124.902 136.001 125.016 136.811 125.141C137.62 125.265 138.533 125.4 139.53 125.525C140.526 125.649 141.273 125.763 142.217 125.909L144.376 126.22C146.034 126.43 147.706 126.521 149.377 126.49H150.353C150.841 126.584 151.391 126.708 151.992 126.843C152.75 127.02 153.611 127.217 154.576 127.393C155.873 127.632 157.305 127.923 159.101 128.296C159.287 128.348 159.661 128.504 159.92 128.608C160.811 128.999 161.735 129.308 162.681 129.532C163.986 129.812 165.306 130.02 166.634 130.155L167.817 130.3C168.015 130.373 168.367 130.549 168.606 130.663C169.318 131.04 170.065 131.346 170.837 131.577C171.875 131.878 173.016 132.096 173.95 132.283C174.417 132.366 175.123 132.511 175.299 132.563C175.787 132.729 176.275 132.947 176.783 133.176C177.292 133.404 177.727 133.601 178.288 133.83C178.476 133.931 178.648 134.06 178.796 134.214C179.233 134.62 179.734 134.95 180.28 135.19C181.472 135.637 182.707 135.964 183.964 136.166L184.898 136.363L185.012 136.415C185.759 136.799 186.527 137.204 187.15 137.577C187.163 137.674 187.163 137.772 187.15 137.868C187.058 138.08 187.05 138.319 187.127 138.536C187.204 138.754 187.36 138.934 187.565 139.041L187.783 139.197C188.297 139.558 188.789 139.95 189.256 140.37C189.584 140.644 189.931 140.893 190.294 141.117C190.577 141.282 190.838 141.481 191.072 141.709C191.229 141.935 191.341 142.189 191.404 142.457C191.462 142.663 191.535 142.864 191.622 143.059C191.734 143.259 191.855 143.453 191.986 143.64C192.16 143.87 192.296 144.125 192.39 144.398C192.432 144.593 192.491 144.784 192.567 144.969C192.673 145.208 192.732 145.465 192.743 145.727C192.583 145.837 192.413 145.931 192.235 146.007C191.726 146.235 191.093 146.537 190.937 146.931C190.901 147.088 190.899 147.252 190.933 147.41C190.967 147.568 191.036 147.716 191.135 147.845C191.228 148.011 191.332 148.198 191.27 148.281C191.039 148.577 190.774 148.846 190.481 149.08L190.045 149.485C189.849 149.681 189.678 149.9 189.537 150.139C189.409 150.366 189.24 150.566 189.038 150.731C188.707 150.914 188.36 151.067 188.001 151.187C187.534 151.352 187.08 151.55 186.641 151.779C186.427 151.859 186.249 152.012 186.138 152.212C186.028 152.412 185.993 152.645 186.039 152.869C186.061 152.965 186.061 153.064 186.039 153.16C185.842 153.16 185.365 153.295 185.002 153.347C184.112 153.473 183.234 153.67 182.376 153.938C181.87 154.119 181.402 154.394 180.996 154.748C180.869 154.866 180.73 154.97 180.581 155.06H179.709C178.316 155.079 176.926 155.225 175.559 155.496C174.844 155.617 174.195 155.984 173.722 156.534C173.64 156.625 173.55 156.708 173.452 156.783C172.881 156.907 172.414 157.042 171.875 157.167C171.335 157.292 170.744 157.458 170.204 157.551H170.059H169.021C168.461 157.551 167.838 157.551 167.184 157.551C166.323 157.551 165.607 157.645 164.984 157.728C164.181 157.842 163.385 157.997 162.598 158.195C162.153 158.308 161.703 158.398 161.249 158.465H159.827C159.09 158.465 158.271 158.465 157.409 158.465C156.953 158.465 156.548 158.465 156.164 158.537C155.055 158.629 153.958 158.841 152.895 159.171L152.366 159.337L151.505 159.264C149.943 159.108 148.373 159.049 146.804 159.088C145.547 159.164 144.3 159.356 143.079 159.659L142.373 159.783L141.335 159.679C139.855 159.495 138.365 159.395 136.873 159.378C136.427 159.378 135.97 159.378 135.493 159.378C134.704 159.378 133.999 159.461 133.418 159.513L132.224 159.586H132.006C130.969 159.586 129.931 159.586 129.111 159.586C128.291 159.586 127.575 159.586 126.973 159.586L125.936 159.409C124.526 159.142 123.102 158.958 121.671 158.859C120.581 158.797 119.595 158.766 118.693 158.745C117.79 158.724 117.084 158.745 116.493 158.652C115.901 158.558 115.185 158.506 114.417 158.402C113.649 158.299 112.57 158.143 111.48 158.039C109.696 157.863 108.087 157.696 106.458 157.51C104.855 157.341 103.244 157.275 101.633 157.312H100.709L99.8167 157.063C98.7196 156.739 97.6038 156.483 96.4753 156.295C96.2678 156.295 95.7904 156.098 95.4376 156.004C94.4198 155.666 93.3796 155.399 92.3245 155.205C90.7416 154.949 89.1435 154.796 87.5406 154.748L86.6171 154.696C86.3888 154.624 86.0775 154.499 85.8492 154.416C84.9716 154.052 84.0658 153.76 83.1408 153.544C82.2795 153.336 81.439 153.108 80.5465 152.859L79.1768 152.485C78.7824 152.381 78.3466 152.205 77.8796 152.028C77.4127 151.852 76.6863 151.551 75.8561 151.302C74.6388 150.972 73.4014 150.722 72.1516 150.554L71.0516 150.367C70.4601 150.17 69.8582 149.994 69.2771 149.817C68.696 149.641 67.9696 149.423 67.5234 149.256C67.4043 149.161 67.2995 149.049 67.2121 148.924C66.8261 148.458 66.3254 148.1 65.7593 147.886C65.3234 147.689 64.8565 147.502 64.4206 147.325C63.8292 147.087 63.2792 146.869 62.8641 146.651C62.449 146.433 61.899 146.204 61.4217 145.997C60.9799 145.821 60.5501 145.616 60.1349 145.384C59.7725 145.151 59.4259 144.895 59.0972 144.616C58.8793 144.429 58.651 144.242 58.3916 144.045C58.2573 143.923 58.1693 143.758 58.1426 143.578C58.0687 143.24 57.8951 142.933 57.6444 142.695C56.8508 142.168 55.9737 141.778 55.0502 141.543L54.3653 141.315C54.2944 141.148 54.2659 140.966 54.2823 140.785C54.291 140.525 54.2414 140.266 54.137 140.027C54.137 139.934 54.2096 139.757 54.3341 139.602C54.444 139.486 54.5285 139.349 54.5821 139.199C54.6357 139.049 54.6574 138.889 54.6455 138.73C54.5595 138.445 54.4185 138.181 54.2304 137.951C54.0811 137.792 53.9802 137.594 53.9398 137.38C53.9979 137.147 54.1079 136.931 54.2615 136.747C54.4093 136.554 54.5346 136.345 54.6351 136.124C54.7045 135.916 54.7464 135.699 54.7596 135.48C54.7575 135.25 54.8185 135.024 54.936 134.826C55.1427 134.647 55.3776 134.503 55.6313 134.401C56.0396 134.22 56.4205 133.982 56.7624 133.695C57.04 133.469 57.3389 133.271 57.6548 133.103C57.9454 132.937 58.2463 132.76 58.5161 132.574C58.797 132.368 59.0189 132.093 59.1595 131.774C59.2245 131.593 59.3442 131.437 59.5019 131.328C59.8379 131.185 60.1849 131.071 60.5396 130.985C61.1564 130.837 61.7602 130.639 62.3452 130.393C62.789 130.223 63.1571 129.899 63.3829 129.48C63.4437 129.354 63.5325 129.244 63.6424 129.158C64.3895 128.878 65.2508 128.618 66.164 128.348L66.5479 128.234C66.9838 128.099 67.5856 127.975 68.2498 127.84C68.9139 127.705 69.4224 127.591 70.0139 127.445C70.844 127.238 71.7779 127.051 72.7534 126.843L73.5213 126.687C74.1889 126.544 74.8473 126.36 75.4929 126.137C75.887 126.002 76.2891 125.891 76.6967 125.805C77.2882 125.701 78.0561 125.618 78.8655 125.525C79.6749 125.431 80.2145 125.369 80.9409 125.265H81.2833H82.321C82.7984 125.265 83.3587 125.265 83.8983 125.265C84.6454 125.265 85.2992 125.192 85.87 125.13C86.7752 125.029 87.673 124.87 88.5576 124.653C88.952 124.57 89.4397 124.455 89.6991 124.435H90.2802C90.6849 124.435 91.1623 124.435 91.6604 124.435C92.1585 124.435 92.9471 124.435 93.6423 124.435L93.6216 124.196ZM97.4196 122.493C95.6866 122.556 94.5763 123.023 92.9263 123.116H92.2622C91.1623 123.116 89.9896 123.116 88.9 123.189L87.769 123.262C86.1502 123.396 85.2058 123.812 83.6804 123.978C83.3276 123.978 82.9333 124.04 82.5078 124.061C81.6776 124.061 80.7645 124.061 79.9343 124.123C79.4259 124.123 78.8966 124.175 78.5334 124.227C77.0806 124.435 75.4203 124.57 74.0817 124.798C72.743 125.026 71.9544 125.462 70.6884 125.732C69.4224 126.002 68.146 126.241 66.9734 126.532C65.8008 126.822 64.3792 127.051 63.3311 127.373C62.283 127.694 61.1934 128.006 60.218 128.359C59.2425 128.712 59.5953 129.283 58.7652 129.646C57.935 130.009 56.4822 130.259 55.7766 130.684C55.0709 131.11 55.2681 131.577 54.687 131.982C54.0561 132.345 53.4463 132.743 52.8606 133.176C52.4144 133.601 51.2729 133.944 50.9616 134.38C50.6503 134.816 50.7956 135.294 50.6192 135.75C50.4428 136.207 49.955 136.622 49.9135 137.089C49.872 137.557 50.5258 138.034 50.6192 138.512C50.7126 138.989 49.9032 139.405 50.1418 139.882C50.3805 140.36 50.1418 140.837 50.4635 141.315C50.7852 141.792 53.2653 142.239 53.7634 142.716C54.2615 143.194 53.971 143.671 54.6143 144.149C55.2043 144.649 55.821 145.117 56.4615 145.55C57.2294 146.028 58.4538 146.443 59.3255 146.9C60.1972 147.357 61.4009 147.772 62.3763 148.208C63.3518 148.644 63.165 149.246 64.265 149.682C65.3649 150.118 66.8904 150.492 68.1045 150.907C69.3186 151.322 71.7365 151.499 73.0543 151.893C74.3722 152.288 75.2024 152.765 76.6033 153.139C78.0042 153.513 79.322 153.897 80.806 154.25C82.2899 154.603 83.12 155.184 84.687 155.506C86.2539 155.828 88.8378 155.724 90.5085 156.025C92.1792 156.326 93.1961 156.887 94.8772 157.157C96.5583 157.427 97.8243 158.008 99.5677 158.247C101.311 158.485 103.718 158.247 105.451 158.444C107.184 158.641 108.969 158.828 110.785 159.005C112.601 159.181 114.272 159.503 116.098 159.648C117.925 159.794 119.741 159.762 121.577 159.877C123.414 159.991 125.272 160.531 127.098 160.614C128.924 160.697 130.74 160.614 132.567 160.614C132.94 160.614 133.303 160.614 133.667 160.614C134.777 160.614 135.846 160.448 136.966 160.396H137.766C139.55 160.396 141.771 160.852 143.535 160.821H143.732C145.372 160.759 146.524 160.271 148.194 160.198C149.865 160.126 152.221 160.531 153.871 160.468H154.037C155.718 160.375 156.506 159.762 158.094 159.627H158.789C159.962 159.627 161.332 159.627 162.494 159.627C162.826 159.627 163.148 159.627 163.438 159.565C164.974 159.389 165.97 158.994 167.423 158.797C167.755 158.745 168.149 158.724 168.565 158.703C169.488 158.703 170.557 158.703 171.47 158.652C171.908 158.64 172.344 158.602 172.778 158.537C174.147 158.299 175.237 157.946 176.503 157.676C177.769 157.406 177.478 156.71 178.641 156.42C179.803 156.129 182.719 156.264 183.829 155.942C184.94 155.62 184.96 155.06 185.905 154.717C186.849 154.374 188.904 154.229 189.734 153.855C190.564 153.482 189.734 152.817 190.419 152.433C191.103 152.049 192.318 151.727 192.888 151.322C193.459 150.917 193.532 150.43 193.926 150.004C194.393 149.615 194.827 149.188 195.223 148.727C195.534 148.281 194.756 147.762 194.933 147.305C195.109 146.848 196.717 146.505 196.759 146.038C196.697 145.553 196.571 145.079 196.385 144.626C196.177 144.121 195.913 143.64 195.597 143.194C195.457 142.696 195.254 142.218 194.995 141.771C194.621 141.304 193.656 140.827 193.148 140.349C192.639 139.872 192.006 139.415 191.363 138.937C190.72 138.46 191.695 137.899 190.948 137.442C190.201 136.986 189.236 136.498 188.354 136.041C187.471 135.584 184.711 135.304 183.715 134.868C182.719 134.432 182.677 133.83 181.557 133.425C180.436 133.02 179.575 132.511 178.36 132.096C177.146 131.681 175.009 131.432 173.701 131.058C172.394 130.684 171.813 130.092 170.412 129.708C169.011 129.324 166.562 129.241 165.078 128.888C163.594 128.535 162.847 127.933 161.29 127.611C159.734 127.289 158.084 126.947 156.455 126.646C154.825 126.345 153.341 125.919 151.66 125.608C149.979 125.296 147.437 125.608 145.694 125.338C143.95 125.068 142.342 124.808 140.567 124.601C138.793 124.393 137.143 124.061 135.379 123.884C133.615 123.708 131.768 123.573 129.941 123.428C128.115 123.282 126.299 123.241 124.462 123.127C122.625 123.012 120.892 123.127 119.056 123.043C117.219 122.96 115.517 122.909 113.691 122.867C111.864 122.825 109.727 122.244 107.932 122.244C107.465 122.244 106.998 122.244 106.551 122.244C105.514 122.244 104.476 122.358 103.511 122.4H102.712C100.969 122.4 99.1526 122.4 97.43 122.514L97.4196 122.493Z" fill="#E58848"/>
<path d="M73.6562 129.449C66.9111 129.719 63.4659 131.432 65.9564 133.28C68.4469 135.127 75.9495 136.394 82.6946 136.166C89.4397 135.937 92.8848 134.193 90.3943 132.335C87.9038 130.477 80.4012 129.22 73.6562 129.449Z" fill="#B12600"/>
<path d="M72.2346 130.674C71.3318 130.674 70.8648 130.944 71.1969 131.193C71.8997 131.508 72.6708 131.64 73.4383 131.577C74.3411 131.577 74.8081 131.317 74.476 131.068C73.7703 130.75 72.996 130.615 72.2242 130.674H72.2346Z" fill="#F4BDC6"/>
<path d="M78.9277 132.792C78.1806 132.792 77.7966 133.01 78.0768 133.217C78.6614 133.483 79.3047 133.594 79.9447 133.539C80.6918 133.539 81.0862 133.321 80.806 133.114C80.2175 132.848 79.571 132.737 78.9277 132.792Z" fill="#F4BDC6"/>
<path d="M86.4823 133.85C85.9946 133.85 85.7455 133.985 85.9219 134.12C86.3027 134.291 86.7196 134.366 87.136 134.338C87.6238 134.338 87.8832 134.193 87.6964 134.058C87.316 133.886 86.8981 133.815 86.4823 133.85Z" fill="#E2A4AC"/>
<path d="M72.826 133.279C71.7883 133.279 71.2384 133.591 71.6223 133.881C72.4459 134.249 73.3482 134.406 74.2477 134.338C75.2854 134.338 75.8354 134.026 75.4515 133.736C74.6279 133.368 73.7255 133.211 72.826 133.279Z" fill="#F4BDC6"/>
<path d="M87.2708 139.56C86.15 139.56 85.5793 139.882 85.9944 140.193C86.8635 140.582 87.8161 140.746 88.7651 140.67C89.8754 140.67 90.4462 140.338 90.0311 140.037C89.1669 139.645 88.2165 139.481 87.2708 139.56Z" fill="#E23D1C"/>
<path d="M106.759 145.301C105.545 145.301 104.933 145.654 105.368 145.986C106.309 146.407 107.34 146.586 108.367 146.505C109.581 146.453 110.194 146.152 109.748 145.82C108.813 145.392 107.783 145.214 106.759 145.301Z" fill="#E23D1C"/>
<path d="M121.339 144.087C120.228 144.087 119.658 144.408 120.073 144.709C120.933 145.102 121.88 145.266 122.823 145.186C123.933 145.186 124.504 144.865 124.089 144.553C123.226 144.17 122.28 144.009 121.339 144.087Z" fill="#E23D1C"/>
<path d="M134.891 145.124C133.791 145.124 133.22 145.446 133.625 145.757C134.49 146.146 135.441 146.307 136.385 146.224C137.485 146.224 138.056 145.903 137.641 145.602C136.78 145.213 135.833 145.049 134.891 145.124Z" fill="#E23D1C"/>
<path d="M142.383 148.239C141.273 148.291 140.713 148.571 141.117 148.872C141.98 149.259 142.925 149.423 143.867 149.35C144.978 149.35 145.548 149.017 145.133 148.717C144.272 148.328 143.326 148.163 142.383 148.239Z" fill="#E23D1C"/>
<path d="M90.6123 127.757C89.5019 127.757 88.9312 128.078 89.3463 128.379C90.2063 128.773 91.1537 128.938 92.0962 128.857C93.2065 128.857 93.7773 128.535 93.3622 128.224C92.4995 127.839 91.5536 127.679 90.6123 127.757Z" fill="#E23D1C"/>
<path d="M134.777 141.283C132.702 141.356 131.664 141.885 132.421 142.446C133.179 143.006 135.472 143.4 137.527 143.328C139.582 143.255 140.64 142.726 139.872 142.155C139.104 141.584 136.832 141.2 134.777 141.283Z" fill="#E23D1C"/>
<path d="M145.455 139.529C144.189 139.529 143.535 139.903 144.002 140.255C144.978 140.695 146.049 140.88 147.115 140.795C148.392 140.795 149.045 140.421 148.568 140.079C147.593 139.638 146.522 139.449 145.455 139.529Z" fill="#E23D1C"/>
<path d="M112.248 133.985C110.65 134.048 109.831 134.452 110.422 134.898C111.665 135.454 113.029 135.687 114.386 135.573C115.984 135.511 116.804 135.106 116.212 134.67C114.97 134.11 113.606 133.874 112.248 133.985Z" fill="#E23D1C"/>
<path d="M124.649 132.574C123.092 132.636 122.304 133.03 122.875 133.456C124.082 133.995 125.406 134.224 126.724 134.12C128.271 134.058 129.07 133.663 128.489 133.238C127.286 132.692 125.965 132.464 124.649 132.574Z" fill="#E23D1C"/>
<path d="M95.0744 136.975C93.2792 137.048 92.366 137.505 92.999 138.013C94.3922 138.647 95.9255 138.912 97.4508 138.781C99.246 138.708 100.159 138.252 99.5262 137.743C98.133 137.109 96.5997 136.844 95.0744 136.975Z" fill="#E23D1C"/>
<path d="M72.9713 137.038C71.9336 137.038 71.4874 137.328 71.8506 137.598C72.6107 137.943 73.4472 138.086 74.2788 138.013C75.2543 138.013 75.7628 137.733 75.3996 137.463C74.6386 137.12 73.8036 136.974 72.9713 137.038Z" fill="#E23D1C"/>
<path d="M63.6112 137.712C62.999 137.712 62.6773 137.899 62.9056 138.065C63.3874 138.281 63.915 138.373 64.4414 138.335C65.064 138.335 65.3857 138.148 65.1574 137.982C64.6735 137.762 64.1412 137.669 63.6112 137.712Z" fill="#E23D1C"/>
<path d="M65.3027 141.647C64.6801 141.647 64.3688 141.823 64.5971 142C65.0788 142.215 65.6072 142.304 66.1329 142.259C66.7555 142.259 67.0669 142.083 66.8386 141.906C66.356 141.694 65.8282 141.605 65.3027 141.647Z" fill="#E23D1C"/>
<path d="M80.972 128.348C80.3494 128.348 80.0381 128.525 80.256 128.701C80.7408 128.918 81.2731 129.007 81.8021 128.961C82.4144 128.961 82.7361 128.784 82.5078 128.618C82.027 128.399 81.4985 128.307 80.972 128.348Z" fill="#E23D1C"/>
<path d="M121.66 128.65C121.038 128.65 120.726 128.836 120.955 129.002C121.436 129.219 121.964 129.312 122.491 129.272C123.113 129.272 123.425 129.085 123.196 128.919C122.716 128.698 122.187 128.605 121.66 128.65Z" fill="#E23D1C"/>
<path d="M147.229 129.096C146.607 129.096 146.285 129.272 146.513 129.449C146.998 129.666 147.53 129.755 148.06 129.708C148.672 129.708 148.983 129.532 148.755 129.355C148.276 129.144 147.751 129.055 147.229 129.096Z" fill="#E23D1C"/>
<path d="M174.926 143.547C174.303 143.547 173.992 143.734 174.22 143.9C174.7 144.121 175.229 144.214 175.756 144.169C176.378 144.169 176.69 143.983 176.461 143.817C175.982 143.595 175.452 143.502 174.926 143.547Z" fill="#E23D1C"/>
<path d="M161.913 155.07C161.29 155.07 160.969 155.246 161.197 155.423C161.682 155.64 162.214 155.729 162.743 155.682C163.355 155.682 163.677 155.506 163.449 155.34C162.968 155.121 162.439 155.028 161.913 155.07Z" fill="#E23D1C"/>
<path d="M123.954 156.389C123.331 156.389 123.02 156.565 123.248 156.741C123.731 156.954 124.258 157.043 124.784 157.001C125.407 157.001 125.718 156.824 125.49 156.648C125.007 156.436 124.479 156.347 123.954 156.389Z" fill="#E23D1C"/>
<path d="M81.5532 148.447C80.9306 148.447 80.6193 148.623 80.8476 148.8C81.3293 149.015 81.8577 149.104 82.3834 149.059C83.006 149.059 83.3173 148.883 83.089 148.706C82.6064 148.494 82.0787 148.405 81.5532 148.447Z" fill="#E23D1C"/>
<path d="M71.7157 143.983C70.5742 143.983 69.9931 144.325 70.4185 144.637C71.307 145.034 72.2812 145.202 73.2515 145.124C74.393 145.072 74.9741 144.782 74.5486 144.471C73.6609 144.071 72.686 143.903 71.7157 143.983Z" fill="#E23D1C"/>
<path d="M92.8641 142.623C91.7226 142.623 91.1415 142.965 91.5566 143.276C92.4484 143.675 93.4262 143.843 94.3999 143.764C95.5414 143.764 96.1225 143.432 95.697 143.121C94.8114 142.713 93.8355 142.542 92.8641 142.623Z" fill="#E23D1C"/>
<path d="M118.962 154.073C117.79 154.073 117.188 154.416 117.624 154.737C118.537 155.15 119.541 155.322 120.54 155.236C121.712 155.236 122.314 154.893 121.878 154.571C120.965 154.158 119.961 153.987 118.962 154.073Z" fill="#E23D1C"/>
<path d="M159.848 150.866C158.603 150.866 157.97 151.229 158.437 151.571C159.413 152.006 160.484 152.188 161.55 152.1C162.785 152.049 163.428 151.737 162.961 151.395C161.987 150.95 160.914 150.768 159.848 150.866Z" fill="#E23D1C"/>
<path d="M172.778 144.439C171.356 144.502 170.63 144.865 171.148 145.249C172.253 145.75 173.468 145.958 174.677 145.851C176.098 145.851 176.825 145.436 176.295 145.052C175.194 144.552 173.983 144.341 172.778 144.439Z" fill="#E23D1C"/>
<path d="M180.778 141.938C178.558 142.021 177.427 142.591 178.246 143.204C179.066 143.816 181.536 144.241 183.746 144.148C185.956 144.055 187.098 143.494 186.278 142.892C185.458 142.29 182.999 141.855 180.778 141.938Z" fill="#E23D1C"/>
<path d="M91.1934 151.841C90.7935 151.888 90.3895 151.888 89.9897 151.841C89.1491 151.738 88.7651 151.478 89.118 151.281C89.4117 151.148 89.7297 151.077 90.0519 151.073C90.4558 151.037 90.8621 151.037 91.266 151.073C92.1066 151.187 92.4905 151.436 92.1377 151.644C91.8396 151.773 91.5183 151.841 91.1934 151.841ZM95.4479 149.713C95.1032 149.754 94.7549 149.754 94.4102 149.713C93.6942 149.62 93.3726 149.402 93.6631 149.225C93.9191 149.116 94.1943 149.06 94.4725 149.059C94.8172 149.018 95.1655 149.018 95.5102 149.059C96.2262 149.153 96.5479 149.371 96.2574 149.547C96.0003 149.653 95.7257 149.709 95.4479 149.713ZM91.4216 148.343C88.817 148.509 85.9945 148.54 84.8219 149.204C84.469 149.412 84.8219 150.045 84.6973 150.243C84.2096 151.073 85.3096 151.468 87.6341 152.111C88.7129 152.587 89.8308 152.969 90.9754 153.253C91.7848 153.367 92.6254 153.025 93.4556 153.077C95.2016 153.335 96.9624 153.48 98.7271 153.513C100.791 153.478 102.828 153.04 104.725 152.225C105.275 151.904 105.545 151.571 105.566 151.239C105.566 151.073 105.68 150.668 105.566 150.502C104.964 149.63 102.556 149.038 99.1733 148.582C96.6036 148.247 94.0075 148.163 91.4216 148.332V148.343Z" fill="#952500"/>
<path d="M91.6811 147.45C89.6266 147.415 87.5862 147.796 85.6832 148.571C83.4106 149.796 85.8804 151.499 91.2038 152.371C93.7629 152.779 96.3552 152.939 98.945 152.849C100.999 152.874 103.037 152.493 104.943 151.727C107.216 150.492 104.746 148.8 99.4224 147.928C96.8639 147.514 94.2709 147.355 91.6811 147.45Z" fill="#B12600"/>
<path d="M94.5867 148.239C94.3088 148.232 94.0326 148.285 93.7773 148.395C93.4763 148.55 93.7773 148.789 94.5141 148.903C94.8575 148.954 95.2047 148.975 95.5518 148.966C95.8258 148.967 96.0973 148.914 96.3508 148.81C96.6517 148.654 96.3508 148.426 95.614 148.301C95.2706 148.25 94.9234 148.229 94.5763 148.239H94.5867Z" fill="#E2A4AC"/>
<path d="M98.945 151.229C98.7151 151.235 98.4876 151.277 98.2706 151.353C98.0215 151.499 98.2705 151.685 98.8931 151.779C99.1778 151.825 99.4661 151.846 99.7545 151.841C99.9861 151.842 100.216 151.796 100.429 151.706C100.678 151.571 100.429 151.384 99.8063 151.291C99.5223 151.24 99.2335 151.219 98.945 151.229Z" fill="#F4BDC6"/>
<path d="M90.1557 150.097C89.8358 150.094 89.5184 150.154 89.2217 150.274C88.8689 150.461 89.2218 150.73 90.0831 150.865C90.4843 150.93 90.891 150.955 91.2971 150.938C91.6175 150.946 91.9359 150.886 92.2311 150.761C92.5839 150.575 92.2311 150.305 91.3698 150.17C90.968 150.11 90.5618 150.086 90.1557 150.097Z" fill="#F4BDC6"/>
<path d="M144.49 133.01C144.143 133.02 143.795 132.999 143.452 132.947C142.757 132.823 142.414 132.594 142.726 132.428C142.978 132.332 143.245 132.283 143.514 132.283C143.861 132.273 144.209 132.293 144.552 132.345C145.247 132.47 145.59 132.698 145.278 132.864C145.028 132.965 144.76 133.015 144.49 133.01ZM134.85 132.034H134.383C134.051 131.971 133.905 131.868 134.04 131.795C134.155 131.748 134.279 131.723 134.403 131.722C134.562 131.712 134.722 131.712 134.881 131.722C135.202 131.722 135.358 131.888 135.213 131.961C135.098 132.011 134.974 132.036 134.85 132.034ZM139.374 131.359C139.082 131.372 138.79 131.355 138.502 131.307C137.9 131.203 137.62 131.006 137.88 130.871C138.094 130.785 138.323 130.743 138.554 130.746C138.847 130.716 139.143 130.716 139.436 130.746C140.028 130.85 140.308 131.048 140.048 131.182C139.834 131.269 139.605 131.311 139.374 131.307V131.359ZM135.96 130.082C134.236 130.056 132.524 130.378 130.927 131.027C130.761 131.11 130.47 130.591 130.367 130.674C130.268 130.866 130.218 131.08 130.221 131.297C130.107 132.221 130.491 132.003 131.591 132.532C132.804 133.337 134.144 133.93 135.555 134.287C136.188 134.401 137.101 134.089 137.755 134.152C139.225 134.327 140.706 134.396 142.186 134.359C144.365 134.276 146.15 134.297 147.146 133.757C147.676 133.466 148.184 133.103 148.122 132.781C148.06 132.459 148.122 131.94 147.904 131.743C147.209 131.058 145.081 130.902 142.518 130.477C140.351 130.12 138.154 129.981 135.96 130.061V130.082Z" fill="#952500"/>
<path d="M136.064 129.22C134.34 129.195 132.628 129.516 131.031 130.165C129.101 131.203 131.176 132.677 135.659 133.425C137.822 133.785 140.015 133.928 142.207 133.851C143.935 133.873 145.65 133.549 147.25 132.895C149.17 131.857 147.105 130.394 142.622 129.636C140.455 129.279 138.258 129.14 136.064 129.22Z" fill="#B12600"/>
<path d="M138.658 129.885C138.427 129.88 138.197 129.922 137.983 130.009C137.724 130.155 137.983 130.341 138.596 130.445C138.887 130.497 139.182 130.517 139.478 130.507C139.709 130.509 139.939 130.463 140.152 130.373C140.412 130.238 140.152 130.041 139.54 129.937C139.248 129.894 138.953 129.877 138.658 129.885Z" fill="#F4BDC6"/>
<path d="M141.678 132.968C141.554 132.967 141.431 132.988 141.314 133.03C141.169 133.113 141.314 133.217 141.646 133.269C141.805 133.289 141.965 133.289 142.124 133.269C142.248 133.272 142.371 133.251 142.487 133.207C142.632 133.124 142.487 133.02 142.155 132.968C141.996 132.947 141.836 132.947 141.678 132.968Z" fill="#F4BDC6"/>
<path d="M134.507 130.83C134.383 130.83 134.259 130.855 134.144 130.902C133.999 130.975 134.144 131.079 134.476 131.141H134.953C135.078 131.143 135.202 131.118 135.317 131.068C135.462 130.996 135.317 130.892 134.985 130.83C134.826 130.82 134.666 130.82 134.507 130.83Z" fill="#F4BDC6"/>
<path d="M143.629 131.421C143.358 131.424 143.091 131.477 142.84 131.577C142.539 131.733 142.84 131.961 143.566 132.086C143.91 132.137 144.257 132.158 144.604 132.148C144.871 132.154 145.136 132.105 145.382 132.003C145.694 131.837 145.382 131.608 144.666 131.494C144.324 131.434 143.976 131.409 143.629 131.421Z" fill="#F4BDC6"/>
<path d="M79.9551 143.183C79.7409 143.198 79.526 143.198 79.3118 143.183C78.8863 143.111 78.6788 142.965 78.8656 142.862C79.0206 142.799 79.1862 142.768 79.3533 142.768C79.5673 142.748 79.7827 142.748 79.9967 142.768C80.4221 142.841 80.6297 142.986 80.4429 143.09C80.2875 143.151 80.1221 143.183 79.9551 143.183ZM73.1582 142.986C72.8594 142.995 72.5604 142.974 72.2658 142.924C71.6639 142.82 71.3837 142.623 71.6431 142.488C71.8586 142.393 72.0926 142.346 72.328 142.353C72.6269 142.343 72.9259 142.364 73.2204 142.415C73.8223 142.519 74.1025 142.716 73.8431 142.851C73.628 142.947 73.3938 142.994 73.1582 142.986ZM77.0185 141.948C76.7666 141.974 76.5128 141.974 76.2609 141.948C75.7317 141.855 75.5034 141.688 75.7213 141.564C75.9055 141.487 76.1031 141.449 76.3025 141.45C76.5595 141.441 76.8167 141.459 77.0703 141.502C77.5892 141.585 77.8279 141.761 77.5996 141.886C77.4159 141.963 77.2175 141.998 77.0185 141.989V141.948ZM74.061 140.827C72.5639 140.809 71.0785 141.091 69.6923 141.657C69.4951 141.771 69.2357 141.097 69.1319 141.211C68.364 142.083 70.2734 143.931 73.6874 144.502C75.576 144.824 77.6307 144.149 79.4156 144.076C81.2004 144.003 82.9023 144.076 83.7635 143.651C84.0268 143.505 84.2292 143.27 84.3339 142.988C84.4386 142.706 84.4388 142.396 84.3343 142.114C83.9192 141.45 82.2588 141.616 79.7476 141.201C77.8691 140.888 75.9642 140.763 74.061 140.827Z" fill="#952500"/>
<path d="M74.0505 139.685C72.5529 139.661 71.0662 139.943 69.6818 140.515C68.0111 141.429 69.796 142.706 73.677 143.36C75.5555 143.672 77.4603 143.798 79.3636 143.734C80.8606 143.752 82.3461 143.469 83.7323 142.903C85.403 141.99 83.6078 140.713 79.7372 140.048C77.8577 139.745 75.9533 139.623 74.0505 139.685Z" fill="#B12600"/>
<path d="M76.292 140.266C76.0926 140.265 75.895 140.304 75.7109 140.38C75.4826 140.505 75.7109 140.671 76.2401 140.754C76.4896 140.802 76.744 140.819 76.9976 140.806C77.1997 140.81 77.4006 140.775 77.5891 140.702C77.8174 140.577 77.5891 140.401 77.0599 140.318C76.8062 140.275 76.5491 140.258 76.292 140.266Z" fill="#E2A4AC"/>
<path d="M79.3428 141.595C79.1758 141.594 79.0101 141.626 78.8551 141.688C78.6683 141.792 78.8551 141.927 79.3013 141.999C79.5115 142.025 79.7241 142.025 79.9343 141.999C80.1023 142.011 80.2704 141.979 80.422 141.906C80.6088 141.813 80.422 141.667 79.9758 141.595C79.7656 141.569 79.5531 141.569 79.3428 141.595Z" fill="#F4BDC6"/>
<path d="M78.907 142.955C78.797 142.957 78.6882 142.978 78.5853 143.017C78.4608 143.09 78.5853 143.183 78.8759 143.225C79.0141 143.235 79.1528 143.235 79.291 143.225C79.3975 143.222 79.5027 143.2 79.6023 143.162C79.7268 143.09 79.6023 143.007 79.3117 142.955C79.177 142.945 79.0417 142.945 78.907 142.955Z" fill="#F4BDC6"/>
<path d="M72.3175 141.221C72.0832 141.216 71.8502 141.259 71.6326 141.346C71.3732 141.491 71.6326 141.688 72.2552 141.792C72.5498 141.843 72.8488 141.864 73.1477 141.854C73.3793 141.856 73.6089 141.81 73.8222 141.719C74.092 141.585 73.8221 141.377 73.1995 141.273C72.9061 141.248 72.611 141.248 72.3175 141.273V141.221Z" fill="#F4BDC6"/>
<path d="M165.991 138.304C165.75 138.33 165.506 138.33 165.265 138.304C164.767 138.211 164.528 138.034 164.746 137.889C164.925 137.808 165.12 137.765 165.316 137.764C165.558 137.739 165.801 137.739 166.043 137.764C166.541 137.858 166.769 138.034 166.562 138.179C166.384 138.265 166.188 138.308 165.991 138.304ZM161.456 137.92C161.109 137.942 160.761 137.921 160.419 137.858C159.713 137.733 159.381 137.474 159.692 137.276C159.94 137.162 160.208 137.102 160.481 137.1C160.828 137.078 161.177 137.099 161.519 137.162C162.224 137.287 162.556 137.546 162.245 137.733C162 137.856 161.73 137.92 161.456 137.92ZM162.494 135.044C160.739 135.046 159.007 135.448 157.43 136.217C155.811 137.256 157.077 138.221 160.169 139.093C160.78 139.397 161.408 139.667 162.048 139.903C164.206 140.152 166.386 140.152 168.544 139.903C170.744 139.768 172.632 139.726 173.629 139.093C174.023 138.876 174.334 138.532 174.511 138.117C174.516 137.77 174.499 137.424 174.459 137.079C172.709 136.305 170.878 135.73 169 135.366C166.853 134.99 164.671 134.858 162.494 134.972V135.044Z" fill="#952500"/>
<path d="M162.587 134.318C160.833 134.319 159.102 134.716 157.523 135.48C155.604 136.716 157.679 138.366 162.152 139.166C164.298 139.547 166.481 139.68 168.658 139.56C170.412 139.559 172.143 139.162 173.722 138.398C175.642 137.162 173.566 135.512 169.094 134.712C166.947 134.336 164.764 134.204 162.587 134.318Z" fill="#B12600"/>
<path d="M165.379 136.996C165.181 136.992 164.986 137.035 164.808 137.121C164.601 137.256 164.808 137.442 165.327 137.536C165.568 137.561 165.812 137.561 166.053 137.536C166.25 137.535 166.445 137.492 166.624 137.411C166.832 137.266 166.624 137.079 166.105 136.996C165.864 136.965 165.62 136.965 165.379 136.996Z" fill="#F4BDC6"/>
<path d="M168.17 138.553C168.041 138.552 167.913 138.58 167.797 138.636C167.662 138.719 167.797 138.844 168.139 138.906C168.294 138.921 168.451 138.921 168.606 138.906C168.743 138.939 168.886 138.936 169.021 138.896C169.156 138.813 169.021 138.688 168.679 138.626C168.523 138.611 168.367 138.611 168.212 138.626L168.17 138.553Z" fill="#F4BDC6"/>
<path d="M160.564 136.373C160.291 136.376 160.023 136.436 159.775 136.55C159.474 136.747 159.775 137.006 160.502 137.131C160.844 137.194 161.192 137.215 161.539 137.193C161.813 137.193 162.083 137.129 162.328 137.006C162.629 136.819 162.328 136.56 161.602 136.436C161.259 136.372 160.911 136.351 160.564 136.373Z" fill="#F4BDC6"/>
<path d="M151.11 146.931C150.952 146.952 150.791 146.952 150.633 146.931C150.301 146.869 150.156 146.734 150.301 146.63C150.413 146.57 150.537 146.534 150.664 146.526C150.823 146.505 150.983 146.505 151.141 146.526C151.463 146.588 151.619 146.723 151.484 146.827C151.371 146.895 151.242 146.931 151.11 146.931ZM152.677 146.36C152.436 146.391 152.192 146.391 151.951 146.36C151.442 146.256 151.214 146.049 151.432 145.882C151.607 145.784 151.803 145.731 152.003 145.727C152.246 145.713 152.49 145.731 152.729 145.779C153.238 145.872 153.466 146.08 153.248 146.246C153.073 146.344 152.877 146.397 152.677 146.401V146.36ZM158.374 145.218C158.079 145.242 157.782 145.224 157.492 145.166C156.89 145.052 156.61 144.803 156.88 144.606C157.087 144.483 157.324 144.419 157.565 144.419C157.856 144.395 158.15 144.412 158.437 144.471C159.038 144.585 159.319 144.844 159.059 145.031C158.851 145.152 158.615 145.216 158.374 145.218ZM151.961 143.142C149.751 143.308 147.489 143.142 146.482 143.92C146.078 144.221 146.223 145.156 146.15 145.488C145.891 146.723 147.925 148.052 151.484 148.748C153.637 149.162 155.835 149.291 158.021 149.132C159.814 149.113 161.572 148.634 163.127 147.741C163.596 147.418 163.922 146.927 164.04 146.37C164.04 146.069 164.113 145.073 163.874 144.782C163.168 143.91 161.031 144.024 158.509 143.526C156.353 143.112 154.151 142.983 151.961 143.142Z" fill="#952500"/>
<path d="M152.044 142.01C150.251 142.032 148.493 142.515 146.939 143.412C144.998 144.855 147.063 146.734 151.557 147.627C153.713 148.041 155.914 148.17 158.104 148.011C159.898 147.989 161.656 147.506 163.21 146.609C165.151 145.177 163.075 143.287 158.592 142.395C156.436 141.981 154.234 141.851 152.044 142.01Z" fill="#B12600"/>
<path d="M157.606 143.287C157.366 143.291 157.131 143.355 156.922 143.474C156.652 143.671 156.921 143.92 157.534 144.045C157.827 144.081 158.123 144.081 158.416 144.045C158.653 144.04 158.885 143.975 159.09 143.858C159.36 143.661 159.09 143.412 158.478 143.287C158.191 143.234 157.898 143.217 157.606 143.235V143.287Z" fill="#E2A4AC"/>
<path d="M152.086 144.564C151.885 144.563 151.688 144.617 151.515 144.72C151.297 144.876 151.515 145.093 152.034 145.187C152.273 145.235 152.517 145.252 152.76 145.239C152.961 145.232 153.158 145.175 153.331 145.073C153.549 144.917 153.331 144.71 152.812 144.606C152.571 144.575 152.327 144.575 152.086 144.606V144.564Z" fill="#E2A4AC"/>
<path d="M159.568 146.308C159.436 146.31 159.308 146.346 159.194 146.412C159.059 146.516 159.194 146.651 159.536 146.723C159.691 146.744 159.848 146.744 160.003 146.723C160.136 146.727 160.266 146.691 160.377 146.62C160.522 146.516 160.377 146.381 160.045 146.319C159.886 146.298 159.726 146.298 159.568 146.319V146.308Z" fill="#F4BDC6"/>
<path d="M150.747 145.374C150.617 145.376 150.489 145.408 150.374 145.467C150.239 145.581 150.374 145.716 150.716 145.779C150.874 145.799 151.035 145.799 151.193 145.779C151.32 145.77 151.444 145.735 151.557 145.675C151.702 145.571 151.557 145.436 151.224 145.374C151.066 145.348 150.905 145.348 150.747 145.374Z" fill="#E2A4AC"/>
<path d="M138.928 155.589C138.581 155.607 138.232 155.586 137.89 155.527C137.164 155.402 136.852 155.143 137.132 154.956C137.394 154.841 137.677 154.78 137.963 154.779C138.31 154.762 138.658 154.783 139 154.842C139.737 154.966 140.038 155.226 139.758 155.413C139.5 155.538 139.215 155.599 138.928 155.589ZM132.266 155.029C131.769 155.052 131.272 155.024 130.782 154.946C129.744 154.759 129.277 154.406 129.744 154.136C130.11 153.975 130.506 153.89 130.906 153.887C131.406 153.867 131.907 153.898 132.401 153.98C133.438 154.157 133.905 154.52 133.438 154.779C133.075 154.952 132.677 155.037 132.276 155.029H132.266ZM138.772 153.067C138.341 153.085 137.91 153.057 137.485 152.984C136.614 152.838 136.198 152.527 136.582 152.298C136.908 152.149 137.262 152.075 137.62 152.08C138.047 152.062 138.475 152.09 138.896 152.163C139.779 152.319 140.183 152.62 139.81 152.849C139.484 152.996 139.13 153.071 138.772 153.067ZM133.833 151.063C130.605 151.219 127.42 151.115 125.956 151.997C125.313 152.392 125.417 153.461 125.365 153.897C125.23 154.935 127.087 155.402 129.993 156.264C131.031 156.575 131.902 157.551 133.2 157.78C136.001 158.268 138.637 157.78 141.366 157.78C141.709 157.78 142.809 158.018 143.151 158.008C146.378 157.842 148.724 157.686 150.176 156.814C150.83 156.42 151.484 155.859 151.536 155.423C151.612 154.775 151.5 154.12 151.214 153.534C150.176 152.433 147.177 152.34 143.379 151.675C140.227 151.144 137.026 150.953 133.833 151.104V151.063Z" fill="#952500"/>
<path d="M134.061 150.004C130.844 150.17 128.094 150.71 126.631 151.593C123.819 153.295 126.87 155.589 133.438 156.721C136.591 157.256 139.791 157.451 142.985 157.302C146.202 157.136 148.952 156.596 150.415 155.714C153.217 154.022 150.176 151.717 143.608 150.586C140.455 150.051 137.255 149.856 134.061 150.004Z" fill="#B12600"/>
<path d="M137.662 151.021C137.305 151.015 136.951 151.086 136.624 151.229C136.25 151.457 136.624 151.768 137.537 151.924C137.959 151.994 138.387 152.018 138.814 151.997C139.171 152.006 139.525 151.935 139.851 151.789C140.235 151.561 139.851 151.25 138.938 151.094C138.516 151.029 138.089 151.004 137.662 151.021Z" fill="#F4BDC6"/>
<path d="M138.025 153.721C137.738 153.711 137.453 153.772 137.195 153.897C136.884 154.084 137.195 154.343 137.952 154.468C138.295 154.527 138.643 154.548 138.99 154.53C139.276 154.527 139.558 154.467 139.82 154.354C140.132 154.167 139.82 153.907 139.052 153.783C138.71 153.723 138.362 153.702 138.015 153.721H138.025Z" fill="#F4BDC6"/>
<path d="M142.124 155.89C141.938 155.888 141.754 155.927 141.584 156.004C141.377 156.129 141.584 156.295 142.072 156.378C142.303 156.403 142.536 156.403 142.767 156.378C142.953 156.38 143.137 156.341 143.307 156.264C143.514 156.139 143.307 155.973 142.809 155.89C142.581 155.865 142.351 155.865 142.124 155.89Z" fill="#F4BDC6"/>
<path d="M130.969 152.828C130.568 152.825 130.171 152.91 129.806 153.077C129.36 153.337 129.806 153.7 130.844 153.876C131.338 153.958 131.838 153.989 132.338 153.97C132.739 153.966 133.134 153.882 133.501 153.72C133.936 153.451 133.501 153.098 132.463 152.921C131.973 152.834 131.476 152.803 130.979 152.828H130.969Z" fill="#F4BDC6"/>
<path d="M115.133 142.893C114.881 142.918 114.628 142.918 114.376 142.893C113.857 142.789 113.618 142.592 113.836 142.446C114.022 142.36 114.223 142.314 114.428 142.311C114.681 142.298 114.936 142.316 115.185 142.363C115.704 142.457 115.943 142.654 115.714 142.799C115.534 142.889 115.335 142.935 115.133 142.934V142.893ZM110.412 141.47C110.064 141.48 109.717 141.456 109.374 141.398C108.648 141.263 108.336 140.993 108.627 140.785C108.882 140.661 109.163 140.598 109.447 140.598C109.794 140.58 110.142 140.601 110.484 140.661C111.211 140.796 111.522 141.076 111.231 141.273C110.981 141.402 110.704 141.469 110.422 141.47H110.412ZM115.061 139.934C114.755 139.949 114.448 139.928 114.147 139.872C113.525 139.758 113.234 139.529 113.504 139.353C113.724 139.245 113.965 139.189 114.21 139.187C114.515 139.172 114.822 139.193 115.123 139.249C115.735 139.363 116.026 139.591 115.756 139.768C115.54 139.877 115.302 139.934 115.061 139.934ZM111.522 138.418C109.26 138.543 107.226 138.294 106.188 138.969C105.851 139.238 105.621 139.62 105.539 140.044C105.457 140.468 105.529 140.908 105.742 141.284C106.344 142.166 108.243 143.017 111.076 143.547C113.321 143.948 115.605 144.091 117.883 143.972C119.683 143.96 121.456 143.541 123.072 142.747C123.288 142.63 123.476 142.466 123.623 142.268C123.769 142.07 123.87 141.842 123.919 141.6C123.967 141.358 123.962 141.109 123.904 140.869C123.845 140.63 123.735 140.406 123.58 140.214C122.781 139.456 120.778 139.301 118.288 138.834C116.043 138.43 113.758 138.291 111.48 138.418H111.522Z" fill="#952500"/>
<path d="M111.563 137.64C109.765 137.651 107.992 138.066 106.375 138.854C104.372 140.162 106.51 141.907 111.159 142.768C113.403 143.177 115.688 143.32 117.966 143.194C119.766 143.185 121.54 142.766 123.155 141.969C125.157 140.671 123.02 138.927 118.371 138.065C116.126 137.659 113.841 137.516 111.563 137.64Z" fill="#B12600"/>
<path d="M114.241 138.418C114 138.416 113.762 138.469 113.545 138.574C113.276 138.75 113.546 138.989 114.179 139.103C114.48 139.156 114.786 139.174 115.092 139.155C115.336 139.157 115.577 139.104 115.797 139C116.067 138.823 115.797 138.584 115.154 138.47C114.853 138.417 114.546 138.4 114.241 138.418Z" fill="#F4BDC6"/>
<path d="M114.49 141.481C114.288 141.479 114.089 141.526 113.909 141.616C113.68 141.761 113.909 141.958 114.438 142.051C114.689 142.082 114.944 142.082 115.195 142.051C115.401 142.059 115.605 142.012 115.787 141.916C116.005 141.771 115.787 141.574 115.247 141.481C114.996 141.45 114.741 141.45 114.49 141.481Z" fill="#F4BDC6"/>
<path d="M109.478 139.799C109.193 139.802 108.913 139.87 108.658 139.996C108.347 140.193 108.658 140.474 109.405 140.608C109.748 140.668 110.096 140.688 110.443 140.671C110.727 140.67 111.007 140.606 111.263 140.484C111.574 140.276 111.263 140.007 110.515 139.872C110.173 139.814 109.825 139.79 109.478 139.799Z" fill="#F4BDC6"/>
<path d="M106.437 131.141C106.337 131.156 106.236 131.156 106.136 131.141C105.929 131.141 105.835 131.017 105.929 130.944C105.997 130.901 106.076 130.879 106.157 130.882C106.257 130.867 106.358 130.867 106.458 130.882C106.666 130.882 106.748 131.017 106.665 131.089C106.595 131.126 106.517 131.148 106.437 131.152V131.141ZM108.699 130.508C108.596 130.524 108.491 130.524 108.388 130.508C108.191 130.508 108.098 130.373 108.181 130.311C108.252 130.265 108.334 130.24 108.419 130.238C108.516 130.228 108.613 130.228 108.71 130.238C108.917 130.238 109.011 130.373 108.917 130.446C108.85 130.483 108.776 130.504 108.699 130.508ZM110.567 129.823C110.416 129.843 110.262 129.843 110.111 129.823C109.799 129.75 109.654 129.615 109.789 129.511C109.893 129.442 110.016 129.406 110.142 129.407C110.293 129.387 110.447 129.387 110.598 129.407C110.92 129.47 111.055 129.605 110.93 129.708C110.822 129.778 110.696 129.814 110.567 129.812V129.823ZM105.524 130.134C105.307 130.165 105.087 130.165 104.87 130.134C104.434 130.041 104.237 129.843 104.424 129.698C104.574 129.606 104.746 129.555 104.922 129.553C105.135 129.517 105.353 129.517 105.565 129.553C106.001 129.636 106.209 129.833 106.012 129.989C105.864 130.077 105.696 130.124 105.524 130.124V130.134ZM108.284 129.397C108.102 129.428 107.916 129.428 107.734 129.397C107.35 129.324 107.184 129.148 107.35 129.023C107.48 128.949 107.626 128.906 107.776 128.899C107.958 128.874 108.143 128.874 108.326 128.899C108.699 128.971 108.876 129.138 108.71 129.272C108.581 129.348 108.434 129.387 108.284 129.387V129.397ZM106.157 128.359C104.777 128.463 103.573 128.172 102.94 128.66C101.716 129.615 103.044 131.463 105.846 132.044C107.211 132.322 108.608 132.41 109.996 132.304C111.298 132.278 112.556 131.826 113.577 131.017C114.749 129.812 113.11 129.2 110.297 128.608C108.932 128.332 107.535 128.248 106.147 128.359H106.157Z" fill="#952500"/>
<path d="M106.302 127.549C105.178 127.567 104.079 127.882 103.117 128.463C101.902 129.407 103.189 130.653 105.991 131.234C107.356 131.513 108.753 131.6 110.142 131.494C111.262 131.472 112.356 131.157 113.317 130.58C114.542 129.625 113.255 128.39 110.443 127.798C109.077 127.522 107.68 127.439 106.292 127.549H106.302Z" fill="#B12600"/>
<path d="M107.797 128.078C107.647 128.078 107.5 128.117 107.371 128.193C107.205 128.317 107.371 128.493 107.755 128.566C107.937 128.597 108.123 128.597 108.305 128.566C108.455 128.567 108.601 128.527 108.731 128.452C108.897 128.317 108.731 128.151 108.347 128.078C108.165 128.047 107.979 128.047 107.797 128.078Z" fill="#F4BDC6"/>
<path d="M110.152 128.587C110.024 128.585 109.897 128.621 109.789 128.691C109.654 128.795 109.789 128.93 110.111 129.002C110.266 129.023 110.423 129.023 110.578 129.002C110.701 129 110.822 128.968 110.931 128.909C111.065 128.795 110.931 128.66 110.609 128.597C110.457 128.578 110.304 128.578 110.152 128.597V128.587Z" fill="#F4BDC6"/>
<path d="M109.644 130.715C109.562 130.715 109.482 130.741 109.415 130.788C109.322 130.85 109.415 130.944 109.623 130.985C109.723 131 109.824 131 109.924 130.985C110.005 130.983 110.085 130.958 110.152 130.913C110.235 130.85 110.152 130.757 109.945 130.715C109.845 130.706 109.744 130.706 109.644 130.715Z" fill="#F4BDC6"/>
<path d="M108.419 129.418C108.337 129.418 108.258 129.443 108.191 129.491C108.098 129.563 108.191 129.646 108.399 129.688C108.498 129.702 108.6 129.702 108.699 129.688C108.779 129.684 108.857 129.663 108.928 129.625C109.011 129.553 108.928 129.459 108.72 129.418C108.62 129.408 108.519 129.408 108.419 129.418Z" fill="#F4BDC6"/>
<path d="M106.157 130.062C106.077 130.062 105.998 130.083 105.929 130.124C105.835 130.197 105.929 130.28 106.136 130.321C106.236 130.336 106.338 130.336 106.437 130.321C106.517 130.319 106.595 130.297 106.666 130.259C106.759 130.186 106.666 130.093 106.458 130.051C106.358 130.036 106.257 130.036 106.157 130.051V130.062Z" fill="#F4BDC6"/>
<path d="M104.922 128.722C104.747 128.728 104.575 128.778 104.424 128.868C104.237 129.013 104.424 129.21 104.881 129.293C105.094 129.329 105.311 129.329 105.524 129.293C105.699 129.291 105.87 129.244 106.022 129.158C106.209 129.003 106.022 128.816 105.576 128.722C105.36 128.687 105.139 128.687 104.922 128.722Z" fill="#F4BDC6"/>
<path d="M92.2934 121.559H92.9575C94.6075 121.455 95.7178 120.999 97.4508 120.926C99.8375 120.833 101.415 121.964 102.504 121.964C102.774 121.964 103.065 122.026 103.335 121.964C104.372 121.964 105.41 121.684 106.448 121.642C106.904 121.642 107.309 121.933 107.776 121.933C109.581 121.933 111.678 122.286 113.483 122.327C115.289 122.369 117.188 122.494 119.004 122.566C120.82 122.639 122.605 122.691 124.431 122.795C126.257 122.898 128.021 122.691 129.827 122.795C131.633 122.898 133.418 122.981 135.223 123.158C137.029 123.334 138.824 123.511 140.598 123.719C142.373 123.926 143.712 124.871 145.424 125.12C147.136 125.369 150.145 124.611 151.826 124.881C153.507 125.151 154.836 125.369 156.465 125.67C158.094 125.971 159.578 126.594 161.176 126.916C162.774 127.238 163.552 127.83 165.047 128.183C166.541 128.536 169 128.774 170.412 129.148C171.823 129.522 172.414 128.888 173.732 129.283C175.05 129.677 177.167 129.927 178.392 130.321C179.616 130.716 180.467 131.214 181.577 131.65C182.688 132.086 182.74 132.636 183.746 133.083C184.753 133.529 187.503 133.799 188.385 134.266C189.267 134.733 190.211 135.2 190.969 135.667C191.726 136.135 190.751 136.706 191.394 137.162C192.013 137.602 192.608 138.074 193.179 138.574C193.818 139.013 194.431 139.488 195.016 139.997C195.28 140.442 195.486 140.92 195.628 141.419C195.942 141.863 196.206 142.34 196.417 142.841C196.605 143.295 196.727 143.774 196.78 144.263C196.78 144.72 195.13 145.073 194.964 145.519C194.798 145.966 195.555 146.558 195.254 146.942C194.864 147.408 194.43 147.836 193.957 148.219C193.511 148.655 193.438 149.132 192.919 149.537C192.401 149.942 191.145 150.264 190.45 150.648C189.754 151.032 190.585 151.686 189.765 152.08C188.945 152.475 186.88 152.589 185.936 152.942C184.991 153.295 184.898 153.835 183.86 154.157C182.823 154.479 179.896 154.344 178.724 154.634C177.551 154.925 177.852 155.672 176.576 155.901C175.299 156.129 174.23 156.524 172.861 156.752C172.428 156.816 171.991 156.854 171.553 156.866C170.63 156.866 169.571 156.866 168.648 156.929C168.222 156.929 167.838 156.929 167.506 157.012C166.053 157.219 165.057 157.614 163.521 157.78L162.577 157.852C161.415 157.852 160.045 157.852 158.872 157.852H158.177C156.589 157.987 155.79 158.59 154.12 158.693H153.954C152.304 158.766 149.948 158.372 148.267 158.434C146.586 158.496 145.455 158.984 143.815 159.046H143.618C141.854 159.046 139.623 158.621 137.849 158.61H137.05C135.929 158.61 134.86 158.776 133.75 158.818C133.386 158.818 133.023 158.818 132.639 158.818C130.823 158.818 128.997 158.87 127.181 158.818C125.365 158.766 123.476 158.195 121.66 158.081C119.844 157.967 117.997 157.998 116.181 157.852C114.365 157.707 112.663 157.396 110.858 157.219C109.052 157.043 107.309 156.856 105.534 156.648C103.76 156.441 101.384 156.648 99.6507 156.461C97.9177 156.274 96.6517 155.631 94.9603 155.361C93.2688 155.091 92.2207 154.53 90.5915 154.229C88.9623 153.928 86.337 154.042 84.77 153.721C83.2031 153.399 82.3833 152.807 80.889 152.454C79.3947 152.101 78.0976 151.717 76.7382 151.343C75.3788 150.97 74.5072 150.492 73.1893 150.098C71.8714 149.703 69.4639 149.537 68.2394 149.059C67.0149 148.582 65.5206 148.27 64.3999 147.834C63.2792 147.398 63.5179 146.796 62.5217 146.371C61.5255 145.945 60.3425 145.519 59.4604 145.063C58.5784 144.606 57.385 144.18 56.5963 143.713C55.8077 143.246 55.3823 142.779 54.7389 142.301C54.0955 141.824 54.4068 141.346 53.9087 140.879C53.4106 140.412 50.972 139.945 50.5985 139.467C50.2249 138.99 50.5154 138.512 50.2768 138.045C50.0381 137.578 50.8579 137.131 50.7541 136.664C50.6504 136.197 50.0069 135.709 50.0484 135.242C50.09 134.775 50.5777 134.359 50.7541 133.903C50.9305 133.446 50.7541 132.979 51.0965 132.543C51.439 132.107 52.5493 131.754 52.9955 131.328C53.579 130.896 54.189 130.501 54.8219 130.145C55.3927 129.729 55.2059 129.231 55.8596 128.837C56.5134 128.442 58.0284 128.203 58.8482 127.798C59.668 127.394 59.3566 126.843 60.301 126.501C61.2453 126.158 62.3141 125.836 63.4141 125.515C64.514 125.193 65.9046 124.975 67.0772 124.684C68.2498 124.393 69.5158 124.134 70.7818 123.874C72.0478 123.615 72.8572 123.189 74.1647 122.95C75.4722 122.712 77.174 122.587 78.6268 122.379C79.0883 122.321 79.5523 122.286 80.0173 122.276C80.8579 122.276 81.7607 122.276 82.6012 122.203C83.0163 122.203 83.4106 122.203 83.7738 122.13C85.2992 121.954 86.2435 121.538 87.8624 121.404C88.2256 121.404 88.5992 121.352 88.9935 121.341C90.0312 121.341 91.2557 121.341 92.3556 121.258L92.2934 121.559ZM94.8876 119.556C85.9239 119.832 76.9911 120.745 68.1564 122.286C60.7057 123.646 54.7493 125.4 50.4532 127.56C46.1571 129.719 43.7496 132.086 43.2723 134.661C42.7949 137.235 44.31 142.062 48.0457 144.813C51.7814 147.565 57.3124 150.16 64.566 152.527C72.6282 155.064 80.8606 157.024 89.201 158.392C98.9622 160.051 108.802 161.205 118.682 161.849C129.013 162.552 139.373 162.715 149.72 162.337C158.682 162.067 167.614 161.172 176.451 159.659C183.902 158.288 189.858 156.544 194.154 154.375C198.45 152.205 203.255 149.745 203.722 147.17C204.189 144.595 202.186 139.83 196.562 137.121C192.411 135.117 187.295 131.774 180.042 129.408C171.979 126.87 163.747 124.91 155.406 123.542C145.649 121.884 135.812 120.73 125.936 120.085C115.602 119.38 105.238 119.221 94.8876 119.608V119.556Z" fill="#FFAD5C" stroke="#F78E48" stroke-width="0.52"/>
<g style="mix-blend-mode:darken" opacity="0.5">
<path d="M84.5209 136.612C81.2418 136.726 79.571 137.505 80.7851 138.346C81.9992 139.187 85.6416 139.789 88.9208 139.675C92.1999 139.561 93.8706 138.782 92.6565 137.931C91.4424 137.079 87.8 136.498 84.5209 136.612Z" fill="#E28959"/>
</g>
<g style="mix-blend-mode:darken" opacity="0.5">
<path d="M118.89 141.128C115.195 141.315 113.307 142.228 114.677 143.152C116.046 144.076 120.156 144.668 123.86 144.481C127.565 144.294 129.443 143.443 128.073 142.467C126.704 141.491 122.594 140.941 118.89 141.128Z" fill="#E28959"/>
</g>
<g style="mix-blend-mode:darken" opacity="0.5">
<path d="M126.091 145.665C123.663 145.789 122.418 146.391 123.321 146.993C124.223 147.595 126.921 148.031 129.35 147.875C131.778 147.719 133.023 147.159 132.12 146.547C131.218 145.934 128.52 145.509 126.091 145.665Z" fill="#E28959"/>
</g>
<g style="mix-blend-mode:darken" opacity="0.5">
<path d="M152.47 132.407C150.031 132.532 148.796 133.124 149.689 133.736C150.581 134.348 153.29 134.773 155.728 134.618C158.167 134.462 159.391 133.891 158.488 133.29C157.586 132.688 154.888 132.252 152.47 132.407Z" fill="#E28959"/>
</g>
<g style="mix-blend-mode:darken" opacity="0.5">
<path d="M120.789 128.712C118.36 128.836 117.115 129.428 118.018 130.04C118.921 130.652 121.619 131.078 124.047 130.912C126.475 130.746 127.721 130.196 126.818 129.584C125.915 128.971 123.217 128.546 120.789 128.712Z" fill="#E28959"/>
</g>
<g style="mix-blend-mode:darken" opacity="0.5">
<path d="M122.096 151.54C120.228 151.748 119.274 152.256 120.021 152.682C121.512 153.187 123.104 153.322 124.659 153.076C126.527 152.869 127.471 152.36 126.735 151.935C125.243 151.43 123.652 151.294 122.096 151.54Z" fill="#E28959"/>
</g>
<g style="mix-blend-mode:darken" opacity="0.5">
<path d="M101.498 151.894C97.8035 152.08 95.9149 152.994 97.2847 153.918C98.6544 154.842 102.764 155.444 106.468 155.247C110.173 155.05 112.051 154.157 110.681 153.233C109.312 152.309 105.202 151.707 101.498 151.894Z" fill="#E28959"/>
</g>
<g style="mix-blend-mode:darken" opacity="0.5">
<path d="M102.307 132.013C99.7233 132.148 98.4053 132.781 99.36 133.424C100.315 134.068 103.189 134.462 105.783 134.358C108.378 134.255 109.685 133.601 108.731 132.947C107.776 132.293 104.891 131.909 102.307 132.013Z" fill="#E28959"/>
</g>
<g style="mix-blend-mode:darken" opacity="0.5">
<path d="M99.6611 136.425C96.5479 136.643 94.9499 137.661 96.0914 138.678C97.2328 139.695 100.668 140.36 103.781 140.142C106.894 139.924 108.482 138.906 107.34 137.889C106.199 136.872 102.764 136.207 99.6611 136.425Z" fill="#E28959"/>
</g>
<g style="mix-blend-mode:darken" opacity="0.5">
<path d="M110.816 146.09C107.184 146.35 105.316 147.523 106.665 148.717C108.014 149.91 112.02 150.679 115.652 150.419C119.284 150.16 121.131 148.987 119.803 147.793C118.475 146.599 114.459 145.841 110.837 146.09H110.816Z" fill="#E28959"/>
</g>
<g style="mix-blend-mode:darken" opacity="0.5">
<path d="M86.2539 129.968C83.1408 130.186 81.5531 131.193 82.6842 132.221C83.8153 133.249 87.2709 133.892 90.3736 133.674C93.4763 133.456 95.0744 132.449 93.9433 131.422C92.8122 130.394 89.3566 129.75 86.2539 129.968Z" fill="#E28959"/>
</g>
<g style="mix-blend-mode:darken" opacity="0.5">
<path d="M148.921 140.079C143.577 140.495 140.837 142.239 142.788 143.993C144.739 145.748 150.664 146.817 156.008 146.412C161.353 146.007 164.092 144.253 162.131 142.509C160.17 140.764 154.255 139.674 148.921 140.079Z" fill="#E28959"/>
</g>
<g style="mix-blend-mode:darken" opacity="0.5">
<path d="M122.957 134.121C119.73 134.359 118.07 135.429 119.253 136.477C120.436 137.526 124.005 138.19 127.233 137.941C130.46 137.692 132.11 136.643 130.927 135.584C129.744 134.525 126.174 133.871 122.957 134.121Z" fill="#E28959"/>
</g>
<g style="mix-blend-mode:darken" opacity="0.5">
<path d="M161.477 149.433C158.25 149.682 156.589 150.741 157.772 151.79C158.955 152.838 162.535 153.503 165.752 153.264C168.969 153.025 170.629 151.956 169.457 150.897C168.284 149.838 164.694 149.184 161.477 149.433Z" fill="#E28959"/>
</g>
<g style="mix-blend-mode:darken" opacity="0.5">
<path d="M150.529 152.267C147.302 152.506 145.652 153.575 146.835 154.624C148.018 155.672 151.588 156.337 154.815 156.087C158.042 155.838 159.692 154.79 158.509 153.731C157.326 152.672 153.756 152.018 150.529 152.267Z" fill="#E28959"/>
</g>
<g style="mix-blend-mode:darken" opacity="0.5">
<path d="M73.3344 138.481C70.0553 138.595 68.3846 139.373 69.5987 140.214C70.8129 141.055 74.4552 141.647 77.7344 141.533C81.0135 141.419 82.6842 140.64 81.4701 139.799C80.256 138.958 76.6136 138.366 73.3344 138.481Z" fill="#E28959"/>
</g>
<g style="mix-blend-mode:darken" opacity="0.5">
<path d="M89.8755 145.571C84.5936 145.758 81.9059 147.004 83.8568 148.364C85.8077 149.724 91.6811 150.668 96.9526 150.44C102.224 150.211 104.922 148.997 102.971 147.647C101.02 146.298 95.147 145.332 89.8755 145.571Z" fill="#E28959"/>
</g>
<path fill-rule="evenodd" clip-rule="evenodd" d="M93.3414 186.328L0.114136 146.609V126.314L93.3414 165.015V186.328Z" fill="#F5F4EE"/>
<path fill-rule="evenodd" clip-rule="evenodd" d="M93.2895 186.328L257.765 180.826V159.565L93.2895 164.559V186.328Z" fill="#CCC6C0"/>
<path fill-rule="evenodd" clip-rule="evenodd" d="M248.582 73.3687L253.303 90.093L173.867 127.206L156.901 122.244L248.582 73.3687Z" fill="#8E5326"/>
<path d="M251 158.433L93.5489 163.624L6.496 127.476L157.887 122.286L251 158.433ZM157.887 122.286L251 158.433L157.887 122.286ZM158.115 120.905L0.114136 126.293L93.2687 165.015L257.734 159.586L158.115 120.926V120.905Z" fill="#FFD9B0"/>
<path fill-rule="evenodd" clip-rule="evenodd" d="M96.2781 93.4256L255.742 87.4356L255.628 84.7261L249.848 74.1475L92.1273 79.2759L90.083 77.8328L89.4708 79.3589L96.2781 93.4256Z" fill="#D8A37C"/>
<g style="mix-blend-mode:multiply" opacity="0.5">
<path d="M230.297 148.955L189.827 133.248L187.129 131.888C184.799 130.779 182.4 129.818 179.948 129.013L178.412 128.525L175.424 127.653L169.467 125.317L158.053 120.926L142.3 120.832C137.267 120.209 131.633 119.69 125.572 119.285C119.014 118.849 112.352 118.621 105.763 118.621C101.996 118.621 98.1978 118.694 94.4725 118.839C85.4841 119.122 76.5271 120.041 67.6686 121.59C64.7319 122.13 61.0792 122.981 58.1217 123.801L15.441 125.338L10.3251 130.529L14.6109 131.432L38.3639 140.702H38.5299C39.1629 139.602 41.1346 136.612 42.5666 135.927H42.8156C44.3444 136.006 45.8683 136.162 47.3815 136.394L50.1522 136.861C50.5361 137.017 51.0965 137.266 51.6257 137.515C52.3467 137.883 53.1006 138.182 53.8775 138.408C74.3929 141.46 120.291 148.654 120.706 148.727L190.979 148.031L198.087 147.959H198.17C198.834 147.709 199.536 147.572 200.246 147.554C200.661 147.533 201.073 147.626 201.439 147.824C202.186 148.291 203.691 154.509 204.656 159.991L215.635 159.607L227.485 149.443L230.297 148.955Z" fill="#8E5326"/>
</g>
<path fill-rule="evenodd" clip-rule="evenodd" d="M91.7019 78.4453L94.5763 95.7407L18.8758 132.231L14.2684 131.972L1.68109 126.989L91.7019 78.4453Z" fill="#D8A37C"/>
<path fill-rule="evenodd" clip-rule="evenodd" d="M90.0208 77.833L92.8952 95.1283L16.0118 132.75L0 126.376L90.0208 77.833Z" fill="#F5F4EE"/>
<path fill-rule="evenodd" clip-rule="evenodd" d="M96.9007 91.8995L257.278 86.2313L250.46 72.6213L90.083 77.8328L96.9007 91.8995Z" fill="#E6E4DA"/>
<path fill-rule="evenodd" clip-rule="evenodd" d="M185.905 75.1958C185.928 77.3396 185.113 79.4076 183.634 80.959C182.155 82.5104 180.129 83.4225 177.987 83.5009C176.945 83.5036 175.913 83.3003 174.95 82.9027C173.987 82.5051 173.112 81.921 172.375 81.184C171.638 80.4469 171.054 79.5715 170.657 78.608C170.259 77.6445 170.056 76.6119 170.059 75.5695L185.905 75.1958Z" fill="#CC8B5A"/>
<path fill-rule="evenodd" clip-rule="evenodd" d="M185.956 76.3793C186.932 77.677 187.513 77.5732 187.472 78.4556C187.387 79.195 187.248 79.9271 187.056 80.6461C186.589 81.7465 185.469 82.5666 183.248 82.7223C180.768 82.8563 178.291 82.4013 176.021 81.3945C173.75 80.3877 171.75 78.8577 170.183 76.9295L170.059 75.5696L185.956 76.3793Z" fill="#E89C69"/>
<path fill-rule="evenodd" clip-rule="evenodd" d="M185.905 74.9155C188.613 78.5282 187.638 80.9886 183.196 81.3104C180.676 81.4155 178.167 80.9316 175.867 79.8973C173.566 78.8629 171.539 77.3065 169.945 75.3515L185.905 74.9155Z" fill="#F9F7ED"/>
</g>
<defs>
<linearGradient id="paint0_linear_228_15400" x1="124.101" y1="100.606" x2="122.779" y2="171.373" gradientUnits="userSpaceOnUse">
<stop stop-color="#FFD561"/>
<stop offset="0.77" stop-color="#FFBC46"/>
<stop offset="1" stop-color="#FFB43D"/>
</linearGradient>
</defs>
</svg>
