<svg width="33" height="32" viewBox="0 0 33 32" fill="none" xmlns="http://www.w3.org/2000/svg">
<path d="M9.56496 0C9.2695 0 9.04896 0.238377 9.03163 0.533342V8.62814C9.56786 8.82165 9.98374 9.29421 10.0775 9.87918C10.0812 9.89954 10.294 11.0933 11.165 12.35V0.533342C11.165 0.237873 10.9271 0 10.6316 0H9.56496ZM22.365 0C22.0695 0 21.849 0.238377 21.8316 0.533342V12.3448C22.7079 11.078 22.9223 9.86873 22.9223 9.86873C23.0192 9.28922 23.4325 8.82078 23.965 8.62814V0.533342C23.965 0.237873 23.7271 0 23.4316 0H22.365ZM12.765 2.13337C12.4695 2.13337 12.2316 2.3712 12.2316 2.66665V13.5511C12.7777 14.0255 13.4584 14.4281 14.365 14.6729V2.66665C14.365 2.3712 14.1271 2.13337 13.8316 2.13337H12.765ZM19.165 2.13337C18.8695 2.13337 18.6316 2.3712 18.6316 2.66665V14.6729C19.5384 14.4277 20.219 14.024 20.765 13.549V2.66665C20.765 2.3712 20.5271 2.13337 20.2316 2.13337H19.165ZM6.36496 4.26667C6.0695 4.26667 5.83163 4.50454 5.83163 4.80001V8.5323H7.96496V4.80001C7.96496 4.50454 7.7271 4.26667 7.43163 4.26667H6.36496ZM15.965 4.26667C15.6695 4.26667 15.4316 4.50454 15.4316 4.80001V14.875C15.7626 14.9125 16.1168 14.9333 16.4973 14.9333C16.8789 14.9333 17.2332 14.9127 17.565 14.875V4.80001C17.565 4.50454 17.3271 4.26667 17.0316 4.26667H15.965ZM25.565 4.26667C25.2695 4.26667 25.0316 4.50454 25.0316 4.80001V8.5323H27.165V4.80001C27.165 4.50454 26.9271 4.26667 26.6316 4.26667H25.565ZM3.6983 9.59898C3.37719 9.60011 3.12985 9.88259 3.17121 10.201L5.83684 30.4646C5.93118 31.2584 6.55092 32 7.43059 32H25.565C26.4424 32 27.0617 31.2601 27.1587 30.4688L29.8285 10.201C29.87 9.88093 29.62 9.59759 29.2973 9.59898H24.4983C24.2373 9.60031 24.0156 9.79025 23.9743 10.0479C23.9743 10.0479 23.7221 11.5286 22.6629 13.0239C21.6037 14.5193 19.8009 16 16.4983 16C13.1957 16 11.3919 14.5193 10.3327 13.0239C9.27347 11.5286 9.02538 10.0479 9.02538 10.0479C8.98388 9.78906 8.76045 9.59878 8.4983 9.59898H3.6983ZM16.4983 19.7344C18.8484 19.7344 20.765 21.6478 20.765 23.9979C20.765 26.348 18.8484 28.2656 16.4983 28.2656C14.1482 28.2656 12.2295 26.348 12.2295 23.9979C12.2295 21.6478 14.1482 19.7344 16.4983 19.7344Z" fill="#FF7010"/>
</svg>
